<svg width="96" height="96" viewBox="0 0 96 96" fill="none" xmlns="http://www.w3.org/2000/svg" role="img" aria-label="RoadZone Plus logo">
  <rect width="96" height="96" rx="16" fill="#070707"/>
  <path d="M16 70L32 26H49C58.5 26 64 31.2 64 39.2C64 45 61.1 49.1 56.2 51.3L66 70H53.8L45.3 53.8H38.4L32.7 70H16ZM41.6 44.5H47.5C51.1 44.5 53.2 42.8 53.2 39.8C53.2 37 51.3 35.4 47.8 35.4H40.3L37.2 44.5H41.6Z" fill="white"/>
  <path d="M62 26H79L57.8 59.8H75.2L71.8 70H39.5L60.8 36.2H58.7L62 26Z" fill="#F02222"/>
  <path d="M73 44H82V35H89V44H98V51H89V60H82V51H73V44Z" transform="translate(-10 4)" fill="#FFD45A"/>
  <path d="M16 78H80" stroke="#F02222" stroke-width="5" stroke-linecap="round"/>
</svg>
