<svg width="900" height="650" viewBox="0 0 900 650" fill="none" xmlns="http://www.w3.org/2000/svg" role="img" aria-label="Central Florida service area map">
  <rect width="900" height="650" rx="12" fill="#0B0B0D"/>
  <path d="M140 524C223 442 277 395 345 334C418 269 480 215 553 121" stroke="#33343A" stroke-width="54" stroke-linecap="round"/>
  <path d="M101 248C202 270 326 278 443 258C549 239 642 200 777 214" stroke="#292A30" stroke-width="42" stroke-linecap="round"/>
  <path d="M242 590C305 493 341 439 403 382C469 321 544 300 683 283" stroke="#222329" stroke-width="38" stroke-linecap="round"/>
  <path d="M140 524C223 442 277 395 345 334C418 269 480 215 553 121" stroke="#FFD45A" stroke-width="8" stroke-linecap="round" stroke-dasharray="28 24"/>
  <path d="M101 248C202 270 326 278 443 258C549 239 642 200 777 214" stroke="#F02222" stroke-width="7" stroke-linecap="round"/>
  <path d="M242 590C305 493 341 439 403 382C469 321 544 300 683 283" stroke="#4ADE80" stroke-width="7" stroke-linecap="round"/>
  <circle cx="448" cy="301" r="76" fill="#F02222" fill-opacity="0.18"/>
  <circle cx="448" cy="301" r="45" fill="#F02222" fill-opacity="0.24"/>
  <circle cx="448" cy="301" r="14" fill="#F02222" stroke="white" stroke-width="5"/>
  <g fill="#FFFFFF">
    <circle cx="386" cy="283" r="8"/>
    <circle cx="312" cy="277" r="8"/>
    <circle cx="528" cy="246" r="8"/>
    <circle cx="594" cy="216" r="8"/>
    <circle cx="659" cy="210" r="8"/>
    <circle cx="511" cy="355" r="8"/>
    <circle cx="590" cy="307" r="8"/>
    <circle cx="353" cy="432" r="8"/>
    <circle cx="291" cy="504" r="8"/>
    <circle cx="486" cy="221" r="8"/>
    <circle cx="236" cy="265" r="8"/>
    <circle cx="686" cy="283" r="8"/>
  </g>
  <g font-family="Inter, Arial, sans-serif" font-weight="800" font-size="22" fill="#FFFFFF">
    <text x="468" y="295">Orlando</text>
    <text x="215" y="250">Ocoee</text>
    <text x="262" y="535">Kissimmee</text>
    <text x="602" y="310">Oviedo</text>
    <text x="617" y="198">Sanford</text>
    <text x="528" y="390">Lake Buena Vista</text>
  </g>
  <g font-family="Inter, Arial, sans-serif" font-weight="800" font-size="16" fill="#B9BBC2">
    <text x="281" y="304">Pine Hills</text>
    <text x="523" y="237">Altamonte Springs</text>
    <text x="332" y="463">Celebration</text>
    <text x="458" y="208">Apopka</text>
    <text x="110" y="546">Clermont</text>
    <text x="119" y="306">Winter Garden</text>
  </g>
  <rect x="38" y="38" width="332" height="98" rx="8" fill="#111113" stroke="#33343A"/>
  <text x="62" y="77" font-family="Inter, Arial, sans-serif" font-size="20" font-weight="900" fill="#FFFFFF">RoadZone Plus coverage</text>
  <text x="62" y="108" font-family="Inter, Arial, sans-serif" font-size="16" font-weight="700" fill="#B9BBC2">Orlando • Orange • Osceola • Seminole • Polk</text>
  <rect x="620" y="508" width="232" height="86" rx="8" fill="#111113" stroke="#33343A"/>
  <circle cx="650" cy="542" r="7" fill="#F02222"/>
  <text x="671" y="548" font-family="Inter, Arial, sans-serif" font-size="16" font-weight="800" fill="#FFFFFF">Base response zone</text>
  <circle cx="650" cy="570" r="7" fill="#FFFFFF"/>
  <text x="671" y="576" font-family="Inter, Arial, sans-serif" font-size="16" font-weight="800" fill="#B9BBC2">Service area pages</text>
</svg>
